<svg height="512pt" viewBox="0 0 512 512" width="512pt" xmlns="http://www.w3.org/2000/svg"><path d="m496.472656 372.925781h-480.945312c-8.574219 0-15.527344-6.953125-15.527344-15.527343v-341.871094c0-8.574219 6.953125-15.527344 15.527344-15.527344h480.945312c8.574219 0 15.527344 6.953125 15.527344 15.527344v341.871094c0 8.574218-6.953125 15.527343-15.527344 15.527343zm0 0" fill="#b0693c"/><path d="m496.472656 0h-30.90625c8.578125 0 15.527344 6.953125 15.527344 15.527344v341.871094c0 8.574218-6.949219 15.527343-15.527344 15.527343h30.90625c8.574219 0 15.527344-6.953125 15.527344-15.527343v-341.871094c0-8.574219-6.953125-15.527344-15.527344-15.527344zm0 0" fill="#9c5d35"/><path d="m30.90625 337.898438v-302.871094c0-2.277344 1.84375-4.121094 4.121094-4.121094h441.945312c2.277344 0 4.121094 1.84375 4.121094 4.121094v302.871094c0 2.277343-1.84375 4.121093-4.121094 4.121093h-441.945312c-2.277344 0-4.121094-1.84375-4.121094-4.121093zm0 0" fill="#62636e"/><path d="m140.90625 317.714844h62.269531v99.632812h-62.269531zm0 0" fill="#e8916f"/><path d="m305.964844 512h-263.847656c-2.210938 0-4-1.789062-4-4v-57.8125c0-34.136719 27.671874-61.808594 61.8125-61.808594h144.222656c34.136718 0 61.8125 27.671875 61.8125 61.808594zm0 0" fill="#62636e"/><path d="m244.152344 388.378906h-30.90625c34.140625 0 61.8125 27.671875 61.8125 61.808594v61.8125h30.90625v-61.8125c0-34.136719-27.675782-61.808594-61.8125-61.808594zm0 0" fill="#525463"/><path d="m172.007812 388.394531-31.832031-28.683593c-.757812-.683594-1.902343-.710938-2.6875-.0625l-33.160156 27.3125c-.933594.769531-1.003906 2.175781-.152344 3.039062l28.863281 29.203125c.761719.769531 1.984376.820313 2.804688.117187zm0 0" fill="#d1c4c4"/><path d="m172.074219 388.394531 31.828125-28.683593c.757812-.683594 1.902344-.710938 2.691406-.0625l33.15625 27.3125c.9375.769531 1.007812 2.175781.15625 3.039062l-28.867188 29.203125c-.757812.769531-1.980468.820313-2.804687.117187zm0 0" fill="#d1c4c4"/><path d="m59.953125 228.042969v-83.523438c0-58.421875 47.359375-105.78125 105.78125-105.78125h12.613281c58.421875 0 105.78125 47.359375 105.78125 105.78125v83.523438c0 61.90625-50.183594 112.089843-112.089844 112.089843-61.902343 0-112.085937-50.183593-112.085937-112.089843zm0 0" fill="#ebad88"/><path d="m178.347656 38.738281h-12.613281c-4.191406 0-36.832031 47.644531-40.890625 48.117188-4.195312 36.0625 18.6875 56.496093 58.042969 71.695312 21.632812 8.355469 35.855469 29.21875 35.855469 52.410157v17.082031c0 55.539062-12.371094 101.636719-65.382813 110.53125 6.074219 1.019531 12.316406 1.558593 18.679687 1.558593 61.90625 0 112.089844-50.1875 112.089844-112.089843v-83.523438c0-58.421875-47.359375-105.78125-105.78125-105.78125zm0 0" fill="#e8916f"/><path d="m150.347656 20.988281s18.425782-20.988281 56.773438-20.988281c62.664062 0 136.957031 104.050781 136.957031 184.105469 0 121.265625-67.789063 135.152343-85.59375 123.535156-10.574219-6.898437-6.175781-36.96875-2.4375-76 4.265625-44.527344-23.589844-85.953125-66.503906-98.582031-23.101563-6.800782-46.265625-18-59.046875-36.445313-2.433594-3.511719-7.835938-2.902343-9.503906 1.03125-4.042969 9.535157-11.109376 23.566407-21.277344 34.355469-18.535156 19.675781-27.839844 46.285156-25.3125 73.199219 4.03125 42.925781 6.558594 95.261719-4.1875 101.652343-18.550782 11.039063-66.675782-30.636718-70.097656-98.527343-3.425782-67.890625 69.785156-206 150.230468-187.335938zm0 0" fill="#fdd835"/><path d="m207.121094 0c-6.351563 0-12.144532.585938-17.410156 1.546875 59.347656 13.125 123.464843 108.1875 123.464843 182.558594 0 80.214843-29.660156 113.433593-54.898437 123.378906.070312.050781.136718.109375.207031.15625 17.804687 11.617187 85.59375-2.269531 85.59375-123.535156 0-80.054688-74.292969-184.105469-136.957031-184.105469zm0 0" fill="#fbc02d"/><path d="m354.019531 489.40625-27.546875-14.011719 112.558594-221.289062c3.871094-7.609375 13.171875-10.636719 20.78125-6.769531 7.605469 3.871093 10.636719 13.171874 6.765625 20.78125zm0 0" fill="#ba68c8"/><path d="m378.589844 512h-99.582032l33.28125-72.394531c10.632813-23.292969 38.128907-33.554688 61.421876-22.921875 23.292968 10.632812 33.554687 38.128906 22.921874 61.421875l-14.402343 31.554687c-.652344 1.425782-2.074219 2.339844-3.640625 2.339844zm0 0" fill="#ebad88"/><path d="m373.710938 416.683594c-4.929688-2.25-10.050782-3.554688-15.15625-4.007813 13.734374 13.265625 18.34375 34.234375 9.964843 52.597657l-21.261719 46.726562h31.332032c1.566406 0 2.988281-.914062 3.640625-2.339844l14.402343-31.554687c10.632813-23.289063.371094-50.789063-22.921874-61.421875zm0 0" fill="#e8916f"/></svg>