<?xml version="1.0" encoding="iso-8859-1"?>
<!-- Generator: Adobe Illustrator 19.0.0, SVG Export Plug-In . SVG Version: 6.00 Build 0)  -->
<svg version="1.1" id="Capa_1" xmlns="http://www.w3.org/2000/svg" xmlns:xlink="http://www.w3.org/1999/xlink" x="0px" y="0px"
	 viewBox="0 0 511.999 511.999" style="enable-background:new 0 0 511.999 511.999;" xml:space="preserve">
<path style="fill:#1F9FC4;" d="M32.924,504.293l81.93-10.67l-12.549-39.05l-86.038,45.305
	C20.771,503.331,26.625,505.113,32.924,504.293z"/>
<path style="fill:#70CADB;" d="M91.178,419.949l-72.804-22.805l-10.67,81.93c-0.962,7.388,1.648,14.174,6.347,18.872
	c0.693,0.693,1.437,1.334,2.216,1.932l86.038-45.305L91.39,420.608L91.178,419.949z"/>
<path style="fill:#E7AF62;" d="M84.946,463.714c15.686,15.686,28.362,28.362,29.909,29.909l105.757-13.773
	c10.25-1.335,19.831-6.07,27.204-13.442l3.161-3.161l4.974-118.642L84.946,463.714z"/>
<path style="fill:#F3CC82;" d="M255.951,344.605l3.715-88.606c-10.028,0.519-206.6,10.701-216.866,11.233
	c-5.776,6.88-9.495,15.265-10.653,24.154L18.376,397.145c2.684,2.684,39.212,39.212,66.571,66.571l109.616-57.72L255.951,344.605z"
	/>
<path style="fill:#70CADB;" d="M488.982,175.205c0,0-155.867-155.867-161.158-161.158c-8.864-8.864-23.403-8.697-32.474,0.374
	C27.535,282.236,44.822,264.824,42.801,267.232h8.969c15.829,0,28.488,12.869,28.488,28.488c0,15.733,12.755,28.488,28.488,28.488
	c15.654,0,28.489,12.695,28.489,28.492c0,15.613,12.664,28.484,28.488,28.484c14.588,0,26.607,10.967,28.281,25.104l0.559-0.294
	L488.982,175.205z"/>
<g>
	<path style="fill:#1F9FC4;" d="M497.951,184.175c-2.243-2.243-18.803-18.803-40.785-40.785L194.562,405.994l-0.559,0.294
		c0.132,1.111,0.207,2.239,0.207,3.385c0,15.733,12.755,28.488,28.488,28.488l0,0c14.582,0,26.596,10.958,28.279,25.086
		l246.599-246.599C506.648,207.578,506.816,193.038,497.951,184.175z"/>
	<circle style="fill:#1F9FC4;" cx="214.562" cy="219.662" r="19.999"/>
	<circle style="fill:#1F9FC4;" cx="292.34" cy="297.44" r="19.999"/>
</g>
<path style="fill:#8BD4DC;" d="M172.363,222.967l-10.607-10.607c-2.929-2.929-2.929-7.678,0-10.607l0,0
	c2.929-2.929,7.678-2.929,10.607,0l10.607,10.607c2.929,2.929,2.929,7.678,0,10.607l0,0
	C180.039,225.896,175.292,225.896,172.363,222.967z"/>
<path d="M503.27,178.87L333.137,8.738c-5.728-5.727-13.379-8.862-21.549-8.735c-8.105,0.093-15.75,3.329-21.532,9.11L40.29,258.878
	c-1.097,1.097-2.185,2.285-3.231,3.53c-0.001,0.001-0.001,0.001-0.002,0.002c-6.736,8.022-11.005,17.707-12.346,28.009
	L10.939,396.181l-10.67,81.932c-1.22,9.37,1.871,18.534,8.481,25.144c5.662,5.662,13.199,8.742,21.132,8.742
	c1.328,0,2.668-0.086,4.012-0.262l81.933-10.67l105.761-13.773c11.836-1.542,23.036-7.073,31.538-15.575l3.158-3.158
	c0.002-0.002,0.003-0.003,0.005-0.005L502.896,221.95C514.874,209.97,515.042,190.644,503.27,178.87z M31.956,496.864
	c-4.711,0.613-9.31-0.921-12.601-4.213c-3.291-3.292-4.826-7.885-4.212-12.601l8.702-66.825l74.936,74.936L31.956,496.864z
	 M492.288,211.345L254.273,449.361c-0.053-0.096-0.114-0.187-0.168-0.283c-0.286-0.51-0.584-1.013-0.893-1.507
	c-0.08-0.128-0.157-0.257-0.238-0.384c-0.376-0.584-0.77-1.156-1.178-1.716c-0.094-0.129-0.193-0.255-0.289-0.383
	c-0.35-0.467-0.711-0.924-1.083-1.373c-0.1-0.121-0.198-0.243-0.299-0.362c-0.449-0.528-0.913-1.042-1.391-1.543
	c-0.101-0.106-0.206-0.208-0.309-0.313c-0.41-0.419-0.831-0.828-1.261-1.226c-0.119-0.11-0.236-0.222-0.356-0.331
	c-0.515-0.464-1.042-0.915-1.583-1.349c-0.104-0.083-0.21-0.162-0.315-0.244c-0.467-0.366-0.943-0.721-1.428-1.064
	c-0.137-0.097-0.272-0.195-0.411-0.29c-0.574-0.394-1.157-0.774-1.753-1.135c-0.101-0.061-0.204-0.117-0.305-0.177
	c-0.521-0.308-1.051-0.603-1.588-0.885c-0.152-0.08-0.304-0.161-0.458-0.239c-0.625-0.317-1.259-0.621-1.904-0.902
	c-0.091-0.04-0.184-0.075-0.275-0.114c-0.573-0.244-1.155-0.472-1.742-0.687c-0.167-0.061-0.334-0.123-0.503-0.181
	c-0.67-0.234-1.347-0.453-2.034-0.648c-0.072-0.02-0.146-0.037-0.218-0.057c-0.627-0.173-1.262-0.327-1.901-0.466
	c-0.18-0.039-0.359-0.078-0.54-0.115c-0.708-0.143-1.422-0.272-2.144-0.373c-0.043-0.006-0.087-0.009-0.13-0.015
	c-0.684-0.093-1.375-0.161-2.07-0.215c-0.189-0.015-0.378-0.028-0.568-0.04c-0.74-0.046-1.483-0.077-2.233-0.077
	c-11.574,0-20.989-9.416-20.989-20.989c0-19.844-16.144-35.989-35.989-35.989c-11.574,0-20.989-9.416-20.989-20.989
	c0-19.844-16.144-35.989-35.989-35.989c-4.143,0-7.5,3.358-7.5,7.5c0,4.142,3.358,7.5,7.5,7.5c1.447,0,2.86,0.147,4.225,0.427
	c9.556,1.961,16.764,10.436,16.764,20.562c0,19.844,16.144,35.989,35.989,35.989c11.574,0,20.989,9.416,20.989,20.989
	c0,19.844,16.144,35.989,35.989,35.989c0.63,0,1.253,0.032,1.87,0.087c0.205,0.018,0.405,0.052,0.608,0.076
	c0.41,0.049,0.819,0.1,1.222,0.172c0.235,0.042,0.467,0.097,0.699,0.147c0.363,0.078,0.725,0.159,1.082,0.255
	c0.241,0.065,0.479,0.139,0.717,0.213c0.34,0.105,0.677,0.216,1.009,0.338c0.237,0.087,0.472,0.178,0.705,0.273
	c0.325,0.133,0.646,0.275,0.963,0.423c0.225,0.105,0.45,0.211,0.671,0.324c0.318,0.163,0.628,0.338,0.937,0.516
	c0.206,0.119,0.415,0.235,0.617,0.361c0.324,0.202,0.637,0.419,0.949,0.638c0.172,0.121,0.35,0.235,0.519,0.361
	c0.406,0.303,0.797,0.624,1.179,0.956c0.064,0.055,0.132,0.104,0.195,0.16c0.438,0.389,0.858,0.799,1.262,1.223
	c0.138,0.145,0.265,0.301,0.399,0.45c0.261,0.29,0.52,0.581,0.765,0.886c0.149,0.186,0.288,0.38,0.431,0.571
	c0.212,0.284,0.423,0.569,0.621,0.864c0.14,0.209,0.273,0.424,0.406,0.638c0.182,0.293,0.359,0.589,0.527,0.892
	c0.125,0.225,0.244,0.453,0.361,0.683c0.156,0.309,0.304,0.623,0.446,0.941c0.104,0.234,0.207,0.468,0.303,0.706
	c0.134,0.333,0.254,0.672,0.371,1.014c0.08,0.234,0.164,0.467,0.236,0.704c0.025,0.083,0.043,0.169,0.067,0.252l-0.323,0.322
	c-6.175,6.176-14.297,10.192-22.869,11.309l-102.1,13.296L26.29,394.456l13.297-102.101c0.826-6.347,3.193-12.377,6.896-17.623
	h5.288c11.574,0,20.989,9.416,20.989,20.989c0,4.142,3.358,7.5,7.5,7.5s7.5-3.358,7.5-7.5c0-0.581-0.017-1.159-0.044-1.733
	c-0.009-0.187-0.025-0.373-0.037-0.559c-0.024-0.387-0.052-0.774-0.088-1.158c-0.021-0.217-0.047-0.433-0.071-0.649
	c-0.04-0.352-0.084-0.703-0.134-1.052c-0.032-0.223-0.066-0.444-0.103-0.665c-0.056-0.345-0.118-0.688-0.184-1.03
	c-0.041-0.213-0.082-0.426-0.127-0.638c-0.077-0.361-0.162-0.719-0.249-1.076c-0.045-0.185-0.087-0.372-0.136-0.556
	c-0.119-0.454-0.248-0.903-0.384-1.35c-0.025-0.083-0.047-0.167-0.072-0.25c-0.165-0.527-0.343-1.049-0.531-1.566
	c-0.056-0.153-0.117-0.303-0.175-0.455c-0.137-0.362-0.278-0.723-0.426-1.079c-0.08-0.191-0.164-0.379-0.247-0.568
	c-0.138-0.315-0.278-0.628-0.425-0.938c-0.093-0.197-0.188-0.392-0.285-0.586c-0.149-0.301-0.302-0.6-0.46-0.896
	c-0.1-0.189-0.201-0.378-0.305-0.566c-0.169-0.305-0.344-0.605-0.521-0.905c-0.101-0.17-0.199-0.342-0.303-0.51
	c-0.214-0.348-0.436-0.69-0.661-1.03c-0.074-0.112-0.145-0.227-0.22-0.338c-0.303-0.446-0.615-0.886-0.938-1.317
	c-0.085-0.115-0.176-0.225-0.262-0.339c-0.242-0.316-0.486-0.631-0.738-0.939c-0.127-0.155-0.258-0.306-0.387-0.459
	c-0.221-0.261-0.443-0.52-0.671-0.775c-0.144-0.161-0.29-0.319-0.437-0.477c-0.225-0.242-0.452-0.481-0.683-0.716
	c-0.152-0.155-0.304-0.309-0.458-0.461c-0.24-0.236-0.485-0.468-0.732-0.698c-0.151-0.14-0.3-0.282-0.453-0.419
	c-0.282-0.253-0.569-0.5-0.859-0.744c-0.124-0.104-0.244-0.212-0.369-0.315c-0.415-0.341-0.838-0.674-1.268-0.997
	c-0.088-0.066-0.179-0.128-0.268-0.193c-0.347-0.255-0.697-0.507-1.054-0.75c-0.161-0.109-0.325-0.214-0.487-0.321
	c-0.291-0.192-0.584-0.382-0.881-0.565c-0.183-0.113-0.368-0.223-0.554-0.333c-0.286-0.169-0.573-0.336-0.864-0.497
	c-0.192-0.107-0.385-0.212-0.579-0.316c-0.296-0.158-0.595-0.31-0.896-0.46c-0.191-0.095-0.381-0.191-0.573-0.282
	c-0.329-0.156-0.662-0.305-0.997-0.451c-0.167-0.073-0.333-0.151-0.502-0.222c-0.502-0.211-1.008-0.412-1.521-0.601
	c-0.05-0.018-0.101-0.034-0.151-0.052c-0.467-0.169-0.938-0.329-1.414-0.479c-0.183-0.058-0.369-0.109-0.554-0.164
	c-0.347-0.103-0.694-0.204-1.045-0.297c-0.213-0.056-0.427-0.108-0.642-0.161c-0.195-0.048-0.387-0.101-0.583-0.146L300.662,19.719
	c6.131-6.132,15.941-6.301,21.867-0.375l170.132,170.132C498.588,195.402,498.421,205.212,492.288,211.345z"/>
<g>
</g>
<g>
</g>
<g>
</g>
<g>
</g>
<g>
</g>
<g>
</g>
<g>
</g>
<g>
</g>
<g>
</g>
<g>
</g>
<g>
</g>
<g>
</g>
<g>
</g>
<g>
</g>
<g>
</g>
</svg>
