<svg width="340" height="340" viewBox="0 0 340 340" fill="none" xmlns="http://www.w3.org/2000/svg">
<g clip-path="url(#clip0)">
<path d="M247.244 169.59L331.182 85.652C336.514 80.325 339.176 73.854 339.176 66.238C339.176 58.624 336.507 52.154 331.182 46.824L292.355 7.993C287.026 2.665 280.556 0 272.944 0C265.327 0 258.859 2.665 253.527 7.993L169.59 91.931L85.651 7.993C80.325 2.665 73.854 0 66.237 0C58.626 0 52.154 2.665 46.823 7.993L7.994 46.824C2.667 52.15 0 58.624 0 66.238C0 73.854 2.664 80.322 7.994 85.652L91.931 169.59L7.994 253.528C2.667 258.859 0 265.327 0 272.945C0 280.555 2.664 287.027 7.994 292.355L46.824 331.183C52.154 336.515 58.627 339.177 66.238 339.177C73.854 339.177 80.322 336.508 85.652 331.183L169.591 247.245L253.535 331.183C258.863 336.515 265.328 339.177 272.952 339.177C280.563 339.177 287.034 336.508 292.363 331.183L331.183 292.355C336.515 287.031 339.177 280.555 339.177 272.945C339.177 265.327 336.515 258.859 331.183 253.528L247.244 169.59Z" fill="#65ADE8"/>
</g>
<defs>
<clipPath id="clip0">
<rect width="339.177" height="339.177" fill="white"/>
</clipPath>
</defs>
</svg>
