<svg width="60" height="60" viewBox="0 0 60 60" fill="none" xmlns="http://www.w3.org/2000/svg">
<path d="M50.975 17.694C50.448 8.694 43.029 1.5 34.084 1.5C28.654 1.5 23.396 4.163 20.138 8.508C20.063 8.469 19.983 8.442 19.907 8.405C19.711 8.31 19.513 8.22 19.31 8.139C19.192 8.092 19.072 8.05 18.952 8.008C18.755 7.939 18.555 7.878 18.352 7.823C18.232 7.791 18.113 7.758 17.992 7.73C17.772 7.68 17.548 7.642 17.322 7.609C17.217 7.593 17.113 7.573 17.007 7.561C16.676 7.523 16.341 7.5 16 7.5C11.038 7.5 7 11.537 7 16.5C7 16.629 7.008 16.755 7.016 16.881C2.857 19.148 0 23.899 0 28.654C0 35.737 5.762 41.5 12.845 41.5H18C18.552 41.5 19 41.053 19 40.5C19 39.947 18.552 39.5 18 39.5H12.845C6.865 39.5 2 34.635 2 28.654C2 24.5 4.705 20.188 8.432 18.401L9 18.13V17.5C9 17.377 9.008 17.251 9.015 17.125L9.024 16.952L9.012 16.75C9.006 16.667 9 16.584 9 16.5C9 12.641 12.14 9.5 16 9.5C16.309 9.5 16.614 9.527 16.917 9.567C16.995 9.577 17.073 9.59 17.151 9.603C17.418 9.647 17.681 9.705 17.94 9.779C17.975 9.789 18.011 9.796 18.046 9.806C18.331 9.893 18.609 10.004 18.881 10.127C18.951 10.159 19.02 10.193 19.089 10.227C19.33 10.346 19.566 10.477 19.794 10.625C21.72 11.874 23 14.039 23 16.5C23 17.053 23.448 17.5 24 17.5C24.552 17.5 25 17.053 25 16.5C25 13.746 23.754 11.281 21.8 9.629C24.666 5.879 29.388 3.5 34.084 3.5C41.828 3.5 48.261 9.635 48.932 17.387C47.91 17.315 46.379 17.278 44.849 17.512C44.303 17.595 43.928 18.105 44.011 18.651C44.086 19.146 44.512 19.501 44.998 19.501C45.048 19.501 45.099 19.497 45.15 19.489C47.374 19.153 49.693 19.468 49.834 19.487C54.49 20.372 58 24.661 58 29.472C58 35.001 53.501 39.5 47.972 39.5H44C43.448 39.5 43 39.947 43 40.5C43 41.053 43.448 41.5 44 41.5H47.972C54.604 41.5 60 36.104 60 29.472C60 23.983 56.173 19.06 50.975 17.694Z" fill="#65ADE8"/>
<path d="M39.448 47.534C41.039 45.626 42 43.174 42 40.5C42 34.435 37.065 29.5 31 29.5C24.935 29.5 20 34.435 20 40.5C20 46.565 24.935 51.5 31 51.5C33.673 51.5 36.125 50.54 38.034 48.948L47.293 58.207C47.488 58.402 47.744 58.5 48 58.5C48.256 58.5 48.512 58.402 48.707 58.207C49.098 57.816 49.098 57.184 48.707 56.793L39.448 47.534ZM31 49.5C26.038 49.5 22 45.463 22 40.5C22 35.537 26.038 31.5 31 31.5C35.962 31.5 40 35.537 40 40.5C40 45.463 35.962 49.5 31 49.5Z" fill="#65ADE8"/>
</svg>
