<svg width="48" height="60" viewBox="0 0 48 60" fill="none" xmlns="http://www.w3.org/2000/svg">
<path d="M32.914 0H0.5V60H47.5V14.586L32.914 0ZM33.5 3.414L44.086 14H33.5V3.414ZM2.5 58V2H31.5V16H45.5V58H2.5Z" fill="#65ADE8"/>
<path d="M36.5 21H20.5C19.948 21 19.5 21.447 19.5 22C19.5 22.553 19.948 23 20.5 23H36.5C37.052 23 37.5 22.553 37.5 22C37.5 21.447 37.052 21 36.5 21Z" fill="#65ADE8"/>
<path d="M16.875 18.219L12.574 21.66L11.207 20.293C10.816 19.902 10.184 19.902 9.793 20.293C9.402 20.684 9.402 21.316 9.793 21.707L11.793 23.707C11.987 23.901 12.243 24 12.5 24C12.72 24 12.941 23.928 13.124 23.781L18.124 19.781C18.556 19.435 18.625 18.806 18.28 18.375C17.936 17.943 17.306 17.874 16.875 18.219Z" fill="#65ADE8"/>
<path d="M36.5 32H20.5C19.948 32 19.5 32.447 19.5 33C19.5 33.553 19.948 34 20.5 34H36.5C37.052 34 37.5 33.553 37.5 33C37.5 32.447 37.052 32 36.5 32Z" fill="#65ADE8"/>
<path d="M16.875 29.219L12.574 32.66L11.207 31.293C10.816 30.902 10.184 30.902 9.793 31.293C9.402 31.684 9.402 32.316 9.793 32.707L11.793 34.707C11.987 34.901 12.243 35 12.5 35C12.72 35 12.941 34.928 13.124 34.781L18.124 30.781C18.556 30.435 18.625 29.806 18.28 29.375C17.936 28.943 17.306 28.874 16.875 29.219Z" fill="#65ADE8"/>
<path d="M36.5 43H20.5C19.948 43 19.5 43.447 19.5 44C19.5 44.553 19.948 45 20.5 45H36.5C37.052 45 37.5 44.553 37.5 44C37.5 43.447 37.052 43 36.5 43Z" fill="#65ADE8"/>
<path d="M16.875 40.219L12.574 43.66L11.207 42.293C10.816 41.902 10.184 41.902 9.793 42.293C9.402 42.684 9.402 43.316 9.793 43.707L11.793 45.707C11.987 45.901 12.243 46 12.5 46C12.72 46 12.941 45.928 13.124 45.781L18.124 41.781C18.556 41.435 18.625 40.806 18.28 40.375C17.936 39.943 17.306 39.874 16.875 40.219Z" fill="#65ADE8"/>
</svg>
