<svg width="481" height="481" viewBox="0 0 481 481" fill="none" xmlns="http://www.w3.org/2000/svg">
<path d="M256.7 301.9H229.2C219.2 301.9 211.1 293.8 211.1 283.8C211.1 273.8 219.2 265.7 229.2 265.7H277.6C284.2 265.7 289.6 260.3 289.6 253.7C289.6 247.1 284.2 241.7 277.6 241.7H254.9V225C254.9 218.4 249.5 213 242.9 213C236.3 213 230.9 218.4 230.9 225V241.7H229.2C206 241.7 187.1 260.6 187.1 283.8C187.1 307 206 325.9 229.2 325.9H256.7C266.7 325.9 274.8 334 274.8 344C274.8 354 266.7 362.1 256.7 362.1H207.4C200.8 362.1 195.4 367.5 195.4 374.1C195.4 380.7 200.8 386.1 207.4 386.1H231V403.2C231 409.8 236.4 415.2 243 415.2C249.6 415.2 255 409.8 255 403.2V386.1H257C257.1 386.1 257.2 386.1 257.3 386.1C280.3 385.8 298.8 367 298.8 344C298.8 320.8 279.9 301.9 256.7 301.9Z" fill="#65ADE8"/>
<path d="M423.3 274.7C410.7 245.7 393.3 217.6 371.3 191.3C344.7 159.3 318.2 137.9 304.7 128L355.7 33.4C358.2 28.7 357.4 22.9 353.5 19.2C340.3 6.3 326.3 0 310.7 0C296.4 0 283.3 5.4 271.9 10.2C262.9 13.9 254.4 17.5 247.5 17.5C245.4 17.5 243.6 17.2 241.8 16.5C218 7.8 199.7 2.4 182 2.4C159.6 2.4 140.5 11.4 121.8 30.6C117.9 34.6 117.3 40.9 120.4 45.6L175.4 128.7C161.8 138.8 135.8 160 109.7 191.3C87.8 217.6 70.3 245.7 57.7 274.7C41.9 311.2 33.9 349.3 33.9 387.9C33.9 439.2 75.7 481 127 481H354C405.3 481 447.1 439.2 447.1 387.9C447.1 349.3 439.1 311.2 423.3 274.7ZM146 40.6C157.6 30.6 168.7 26.2 182 26.2C196.2 26.2 212.2 31 233.5 38.9C237.9 40.5 242.6 41.3 247.4 41.3C259.1 41.3 270.3 36.7 281 32.2C291.3 27.9 301.1 23.8 310.6 23.8C315.2 23.8 321.7 24.6 329.9 30.4L281.9 119.6H198.3L146 40.6ZM354 457H127C88.9 457 57.9 426 57.9 387.9C57.9 323.8 81.4 263 127.6 207.2C156.8 171.9 186.5 150 195.5 143.6H285.3C294.4 149.9 324 171.9 353.2 207.2C399.5 263 422.9 323.7 422.9 387.9C423.1 426 392.1 457 354 457Z" fill="#65ADE8"/>
</svg>
