<svg width="55" height="55" viewBox="0 0 55 55" fill="none" xmlns="http://www.w3.org/2000/svg">
<g clip-path="url(#clip0)">
<path d="M45.297 21.946L54.953 16.429L27.477 0.824997L0 16.429L9.656 21.946L0 27.429L9.656 32.946L0 38.429L27.477 54.127L54.953 38.429L45.297 32.946L54.953 27.429L45.297 21.946ZM27.477 3.125L50.912 16.434L27.477 29.824L4.041 16.434L27.477 3.125ZM11.675 23.099L27.477 32.127L43.279 23.099L50.912 27.434L27.477 40.824L4.041 27.434L11.675 23.099ZM50.912 38.434L27.477 51.824L4.041 38.434L11.675 34.099L27.477 43.127L43.279 34.099L50.912 38.434Z" fill="#65ADE8"/>
</g>
<defs>
<clipPath id="clip0">
<rect width="54.953" height="54.953" fill="white"/>
</clipPath>
</defs>
</svg>
