<svg width="384" height="384" viewBox="0 0 384 384" fill="none" xmlns="http://www.w3.org/2000/svg">
<path d="M368 96H256C247.168 96 240 103.168 240 112V176H128C119.168 176 112 183.168 112 192V256H16C7.16797 256 0 263.168 0 272V336C0 344.832 7.16797 352 16 352C24.832 352 32 344.832 32 336V288H128C136.832 288 144 280.832 144 272V208H256C264.832 208 272 200.832 272 192V128H368C376.832 128 384 120.832 384 112C384 103.168 376.832 96 368 96Z" fill="#65ADE8"/>
<path d="M4.6875 155.312C7.81641 158.441 11.9023 160 16 160C20.0977 160 24.1836 158.441 27.3125 155.312L96 86.6328V96C96 104.832 103.168 112 112 112C120.832 112 128 104.832 128 96V48C128 46.5352 127.734 45.1445 127.367 43.793C127.281 43.4648 127.184 43.1523 127.07 42.832C126.633 41.543 126.078 40.3125 125.344 39.1992C125.32 39.168 125.313 39.1289 125.289 39.0977C124.52 37.9531 123.559 36.9531 122.527 36.0391C122.281 35.8164 122.023 35.6094 121.762 35.3984C120.648 34.5352 119.465 33.7773 118.152 33.2305C118.145 33.2305 118.137 33.2227 118.129 33.2148C118.098 33.1992 118.055 33.1992 118.016 33.1914C116.777 32.6875 115.441 32.3906 114.062 32.207C113.695 32.1602 113.336 32.1211 112.969 32.0977C112.648 32.0781 112.336 32 112 32H64C55.168 32 48 39.168 48 48C48 56.832 55.168 64 64 64H73.375L4.6875 132.688C-1.55859 138.938 -1.55859 149.062 4.6875 155.312Z" fill="#65ADE8"/>
</svg>
