<svg width="103" height="47" viewBox="0 0 103 47" fill="none" xmlns="http://www.w3.org/2000/svg">
<path d="M10.1113 39.536C12.9273 39.536 15.0819 38.8533 16.5753 37.488C18.0686 36.1227 18.8153 34.2453 18.8153 31.856C18.8153 29.296 17.9406 27.4187 16.1913 26.224C14.4419 25.0293 11.9459 24.432 8.70325 24.432L3.64725 24.624V1.2H25.6633V9.008H10.8153V17.648L13.4393 17.392C15.5299 17.4773 17.4073 17.8613 19.0713 18.544C20.7779 19.2267 22.2286 20.1867 23.4233 21.424C24.6179 22.6187 25.5353 24.0907 26.1753 25.84C26.8153 27.5467 27.1353 29.4667 27.1353 31.6C27.1353 34.1173 26.7086 36.336 25.8553 38.256C25.0019 40.176 23.8073 41.776 22.2713 43.056C20.7779 44.336 19.0073 45.296 16.9593 45.936C14.9113 46.576 12.6713 46.896 10.2393 46.896C8.31925 46.896 6.48458 46.7253 4.73525 46.384C3.02858 46.0853 1.57792 45.6587 0.38325 45.104L2.62325 38.192C3.60458 38.6187 4.67125 38.96 5.82325 39.216C7.01792 39.4293 8.44725 39.536 10.1113 39.536ZM34.9038 23.536C34.9038 15.6853 36.2478 9.86133 38.9358 6.064C41.6238 2.224 45.4851 0.303997 50.5198 0.303997C55.8958 0.303997 59.8424 2.20266 62.3598 6C64.8771 9.75467 66.1357 15.6 66.1357 23.536C66.1357 31.4293 64.7704 37.296 62.0398 41.136C59.3518 44.976 55.4904 46.896 50.4558 46.896C45.1224 46.896 41.1971 44.8907 38.6798 40.88C36.1624 36.8267 34.9038 31.0453 34.9038 23.536ZM43.2238 23.536C43.2238 28.7413 43.7784 32.7733 44.8878 35.632C46.0398 38.448 47.9171 39.856 50.5198 39.856C53.0371 39.856 54.8718 38.5547 56.0238 35.952C57.2184 33.3493 57.8158 29.2107 57.8158 23.536C57.8158 18.3733 57.2611 14.384 56.1518 11.568C55.0424 8.752 53.1438 7.344 50.4558 7.344C47.8958 7.344 46.0398 8.66666 44.8878 11.312C43.7784 13.9573 43.2238 18.032 43.2238 23.536ZM71.2163 23.536C71.2163 15.6853 72.5603 9.86133 75.2483 6.064C77.9363 2.224 81.7976 0.303997 86.8323 0.303997C92.2083 0.303997 96.1549 2.20266 98.6723 6C101.19 9.75467 102.448 15.6 102.448 23.536C102.448 31.4293 101.083 37.296 98.3523 41.136C95.6643 44.976 91.8029 46.896 86.7683 46.896C81.4349 46.896 77.5096 44.8907 74.9923 40.88C72.4749 36.8267 71.2163 31.0453 71.2163 23.536ZM79.5363 23.536C79.5363 28.7413 80.0909 32.7733 81.2003 35.632C82.3523 38.448 84.2296 39.856 86.8323 39.856C89.3496 39.856 91.1843 38.5547 92.3363 35.952C93.5309 33.3493 94.1283 29.2107 94.1283 23.536C94.1283 18.3733 93.5736 14.384 92.4643 11.568C91.3549 8.752 89.4563 7.344 86.7683 7.344C84.2083 7.344 82.3523 8.66666 81.2003 11.312C80.0909 13.9573 79.5363 18.032 79.5363 23.536Z" fill="#65ADE8"/>
</svg>
