<svg width="476" height="476" viewBox="0 0 476 476" fill="none" xmlns="http://www.w3.org/2000/svg">
<g clip-path="url(#clip0)">
<path d="M442.829 265.532C452.157 251.443 456.815 235.934 456.815 218.994C456.815 199.387 449.59 182.357 435.128 167.877C420.659 153.412 403.527 146.181 383.734 146.181H333.483C342.617 127.339 347.192 109.064 347.192 91.365C347.192 69.094 343.852 51.394 337.196 38.26C330.533 25.122 320.824 15.465 308.07 9.276C295.313 3.09 280.947 0 264.959 0C255.247 0 246.685 3.521 239.262 10.566C231.079 18.559 225.178 28.84 221.563 41.403C217.946 53.962 215.042 66.003 212.855 77.519C210.668 89.034 207.286 97.171 202.72 101.929C193.391 112.017 183.209 124.202 172.169 138.476C152.945 163.408 139.905 178.161 133.056 182.731H54.828C44.74 182.731 36.126 186.305 28.988 193.437C21.853 200.576 18.283 209.189 18.283 219.278V402.001C18.283 412.09 21.849 420.7 28.988 427.839C36.13 434.978 44.74 438.55 54.828 438.55H137.049C141.237 438.55 154.368 442.356 176.448 449.97C199.861 458.156 220.465 464.388 238.26 468.672C256.057 472.956 274.092 475.099 292.366 475.099H318.911H329.195C356.031 475.099 377.633 467.433 394.004 452.109C410.369 436.785 418.462 415.896 418.274 389.439C429.694 374.782 435.403 357.842 435.403 338.62C435.403 334.435 435.122 330.343 434.548 326.342C441.778 313.594 445.402 299.889 445.402 285.232C445.399 278.379 444.544 271.809 442.829 265.532ZM85.949 396.58C82.333 400.194 78.051 402.008 73.102 402.008C68.152 402.008 63.869 400.195 60.252 396.58C56.637 392.967 54.828 388.683 54.828 383.73C54.828 378.782 56.633 374.501 60.252 370.883C63.873 367.266 68.152 365.458 73.102 365.458C78.051 365.458 82.333 367.266 85.949 370.883C89.566 374.5 91.375 378.781 91.375 383.73C91.375 388.683 89.566 392.967 85.949 396.58ZM414.145 242.419C410.052 251.173 404.959 255.646 398.869 255.834C401.723 259.071 404.104 263.596 406.008 269.396C407.91 275.203 408.855 280.483 408.855 285.244C408.855 298.371 403.818 309.699 393.729 319.213C397.159 325.301 398.87 331.871 398.87 338.91C398.87 345.953 397.207 352.948 393.874 359.894C390.547 366.834 386.023 371.832 380.315 374.876C381.266 380.585 381.738 385.916 381.738 390.864C381.738 422.649 363.464 438.542 326.915 438.542H292.379C267.439 438.542 234.896 431.599 194.731 417.701C193.778 417.321 191.022 416.318 186.451 414.703C181.88 413.088 178.503 411.897 176.313 411.138C174.123 410.371 170.795 409.277 166.319 407.853C161.844 406.422 158.232 405.374 155.47 404.711C152.712 404.047 149.569 403.428 146.051 402.856C142.531 402.285 139.532 402.001 137.058 402.001H127.922V219.285H137.058C140.103 219.285 143.481 218.426 147.193 216.717C150.904 215.003 154.713 212.434 158.614 209.007C162.517 205.58 166.178 202.202 169.606 198.869C173.033 195.539 176.839 191.352 181.028 186.31C185.215 181.264 188.498 177.221 190.879 174.175C193.257 171.13 196.254 167.226 199.871 162.468C203.486 157.711 205.677 154.855 206.438 153.902C216.905 140.961 224.233 132.301 228.42 127.921C236.224 119.739 241.886 109.318 245.407 96.66C248.932 84 251.834 72.056 254.11 60.828C256.392 49.599 260.013 41.507 264.968 36.558C283.236 36.558 295.421 41.029 301.51 49.976C307.598 58.921 310.644 72.722 310.644 91.375C310.644 102.604 306.072 117.878 296.934 137.196C287.8 156.516 283.236 171.696 283.236 182.735H383.731C393.258 182.735 401.724 186.397 409.144 193.729C416.57 201.056 420.287 209.572 420.287 219.282C420.284 225.943 418.237 233.653 414.145 242.419Z" fill="#65ADE8"/>
</g>
<defs>
<clipPath id="clip0">
<rect width="475.099" height="475.099" fill="white"/>
</clipPath>
</defs>
</svg>
