<svg width="438" height="302" viewBox="0 0 438 302" fill="none" xmlns="http://www.w3.org/2000/svg">
<path d="M315.637 140.647L368 119.842L219.003 61L70 119.842L122.363 140.647L70 161.323L122.363 182.127L70 202.803L219.003 262L368 202.803L315.637 182.127L368 161.323L315.637 140.647ZM219.003 69.6732L346.086 119.861L219.003 170.354L91.9136 119.861L219.003 69.6732ZM133.311 144.994L219.003 179.039L304.694 144.994L346.086 161.342L219.003 211.835L91.9136 161.342L133.311 144.994ZM346.086 202.822L219.003 253.315L91.9136 202.822L133.311 186.475L219.003 220.519L304.694 186.475L346.086 202.822Z" fill="#343B57"/>
<path d="M315.637 140.647L368 119.842L219.003 61L70 119.842L122.363 140.647L70 161.323L122.363 182.127L70 202.803L219.003 262L368 202.803L315.637 182.127L368 161.323L315.637 140.647ZM219.003 69.6732L346.086 119.861L219.003 170.354L91.9136 119.861L219.003 69.6732ZM133.311 144.994L219.003 179.039L304.694 144.994L346.086 161.342L219.003 211.835L91.9136 161.342L133.311 144.994ZM346.086 202.822L219.003 253.315L91.9136 202.822L133.311 186.475L219.003 220.519L304.694 186.475L346.086 202.822Z" fill="url(#paint0_linear)"/>
<path d="M217.239 36.776V114.248H255.111L252.087 137H187.575V36.776H217.239Z" fill="#494CD1"/>
<defs>
<linearGradient id="paint0_linear" x1="285.716" y1="86.4985" x2="200.023" y2="261.076" gradientUnits="userSpaceOnUse">
<stop stop-color="#494CD1"/>
<stop offset="1" stop-color="white" stop-opacity="0"/>
</linearGradient>
</defs>
</svg>
