<svg width="321" height="321" viewBox="0 0 321 321" fill="none" xmlns="http://www.w3.org/2000/svg">
<g clip-path="url(#clip0)">
<path d="M139.219 124.494C151.588 111.078 158.403 93.082 158.403 73.816C158.403 37.134 132.202 0 82.116 0C58.807 0 39.143 8.006 25.247 23.152C12.938 36.57 6.161 54.562 6.161 73.816C6.161 110.502 32.251 147.634 82.116 147.634C105.512 147.635 125.262 139.635 139.219 124.494ZM82.116 34.322C109.559 34.322 122.057 54.808 122.057 73.842C122.057 84.196 118.573 93.781 112.241 100.828C105.177 108.699 94.911 112.861 82.561 112.861C54.424 112.861 41.606 92.377 41.606 73.345C41.606 53.924 54.134 34.322 82.116 34.322Z" fill="#65ADE8"/>
<path d="M264.274 28.476C259.735 28.558 253.538 31.388 250.502 34.763L25.186 285.275C22.151 288.652 24.301 293.386 28.84 293.386H58.33C62.869 293.386 69.06 290.618 72.09 287.238L296.013 36.777C299.042 33.394 298.841 27.89 291.341 27.892L264.274 28.476Z" fill="#65ADE8"/>
<path d="M239.647 175.822C216.788 175.822 197.497 183.68 183.864 198.537C171.79 211.695 165.138 229.348 165.138 248.236C165.138 284.22 190.732 320.648 239.648 320.648C262.605 320.648 281.974 312.798 295.668 297.947C307.803 284.785 314.486 267.131 314.486 248.236C314.485 212.252 288.78 175.822 239.647 175.822ZM240.089 287.418C212.714 287.418 200.241 266.861 200.241 247.77C200.241 237.373 203.723 227.752 210.05 220.678C217.103 212.784 227.337 208.612 239.648 208.612C267.025 208.612 279.492 229.165 279.492 248.262C279.492 258.657 276.009 268.28 269.687 275.354C262.632 283.246 252.397 287.418 240.089 287.418Z" fill="#65ADE8"/>
</g>
<defs>
<clipPath id="clip0">
<rect width="320.648" height="320.648" fill="white"/>
</clipPath>
</defs>
</svg>
