<svg width="513" height="513" viewBox="0 0 513 513" fill="none" xmlns="http://www.w3.org/2000/svg">
<g clip-path="url(#clip0)">
<path d="M162.677 199.606C161.312 196.927 158.641 195.169 155.646 194.973L83.86 190.186C80.14 189.819 76.701 192.123 75.344 195.587L23.593 327.845C22.202 331.395 23.337 335.431 26.375 337.743C27.894 338.903 29.72 339.484 31.537 339.484C33.337 339.484 35.138 338.921 36.657 337.778L79.611 305.567L104.621 310.567C108.7 311.378 112.778 309.142 114.263 305.243C127.694 270.062 143.863 237.348 162.302 208.021C163.898 205.476 164.043 202.276 162.677 199.606ZM100.934 292.425L79.21 288.082C76.838 287.613 74.363 288.176 72.418 289.626L50.412 306.128L88.954 207.626L140.475 211.056C125.628 236.186 112.368 263.473 100.934 292.425Z" fill="#65ADE8"/>
<path d="M321.822 428.156L317.035 356.361C316.83 353.357 315.072 350.687 312.393 349.321C309.722 347.956 306.522 348.092 303.98 349.696C274.644 368.135 241.938 384.305 206.758 397.735C202.867 399.211 200.614 403.29 201.434 407.377L206.434 432.387L174.223 475.332C171.936 478.387 171.945 482.585 174.257 485.623C175.904 487.79 178.438 488.993 181.049 488.993C182.09 488.993 183.14 488.797 184.163 488.421L316.421 436.67C319.885 435.315 322.069 431.867 321.822 428.156ZM205.87 461.579L222.372 439.573C223.823 437.636 224.386 435.162 223.908 432.781L219.565 411.065C248.525 399.631 275.804 386.371 300.933 371.524L304.372 423.036L205.87 461.579Z" fill="#65ADE8"/>
<path d="M247.45 256.007H189.956C186.859 256.007 184.009 257.688 182.498 260.393L110.336 390.057C108.459 393.436 109.09 397.668 111.872 400.348C113.502 401.918 115.643 402.737 117.794 402.737C119.313 402.737 120.84 402.336 122.205 401.5L251.869 323.033C254.42 321.489 255.982 318.724 255.982 315.738V264.54C255.983 259.83 252.16 256.007 247.45 256.007ZM238.918 310.933L140.885 370.261L194.966 273.081V273.072H238.918V310.933Z" fill="#65ADE8"/>
<path d="M511.574 8.22401C511.224 4.06901 507.931 0.775014 503.775 0.425014C500.942 0.203014 219.95 -19.414 98.324 299.149C97.121 302.298 97.88 305.847 100.261 308.228L140.834 348.801C142.737 350.704 145.399 351.574 148.07 351.216C150.724 350.832 153.045 349.228 154.342 346.881L194.992 273.073H238.919V311.035L164.667 357.914C162.474 359.305 161.032 361.609 160.742 364.186C160.452 366.763 161.356 369.331 163.191 371.166L203.764 411.739C205.394 413.369 207.57 414.239 209.797 414.239C210.821 414.239 211.853 414.06 212.843 413.676C531.421 292.041 511.813 11.049 511.574 8.22401ZM466.811 159.613C436.869 233.694 368.351 334.407 211.903 395.749L182.806 366.652L252.007 322.964C254.481 321.394 255.983 318.672 255.983 315.745V264.548C255.983 259.838 252.16 256.015 247.45 256.015H189.939C186.825 256.015 183.966 257.713 182.464 260.435L144.86 328.714L116.25 300.095C223.021 27.713 450.607 16.569 494.849 17.192C495.165 37.091 493.339 93.97 466.811 159.613Z" fill="#65ADE8"/>
<path d="M146.166 376.874C144.314 374.417 141.362 373.222 138.469 373.529C138.768 370.628 137.573 367.684 135.124 365.832C122.257 356.105 105.652 352.871 89.551 356.949C72.46 361.292 58.483 372.948 51.213 388.947L0.767987 499.933C-0.708013 503.175 -0.0170128 506.99 2.49999 509.498C4.12999 511.136 6.31399 511.998 8.53299 511.998C9.72799 511.998 10.931 511.742 12.066 511.23L123.052 460.776C139.042 453.515 150.698 439.538 155.041 422.447C159.128 406.363 155.894 389.75 146.166 376.874ZM138.504 418.249C135.449 430.289 127.241 440.127 115.995 445.247L25.718 486.281L66.752 395.996C71.863 384.75 81.71 376.541 93.75 373.487C96.916 372.685 100.098 372.292 103.238 372.292C108.554 372.292 113.75 373.427 118.486 375.637L110.363 390.015C108.477 393.351 109.049 397.541 111.762 400.246C114.475 402.968 118.665 403.531 121.993 401.645L136.371 393.513C139.869 401.039 140.663 409.733 138.504 418.249Z" fill="#65ADE8"/>
<path d="M511.574 8.23301C511.224 4.07801 507.93 0.784007 503.775 0.434007C500.447 0.169007 421.348 -5.821 328.324 37.031C325.79 38.191 323.989 40.529 323.494 43.277C322.999 46.025 323.887 48.84 325.858 50.811L461.188 186.141C462.801 187.754 464.977 188.641 467.221 188.641C467.724 188.641 468.228 188.598 468.731 188.513C471.479 188.018 473.808 186.218 474.977 183.683C517.837 90.659 511.847 11.552 511.574 8.23301ZM464.456 165.261L346.738 47.543C414.838 18.796 474.473 16.816 494.858 17.158C495.199 37.56 493.279 97.008 464.456 165.261Z" fill="#65ADE8"/>
<path d="M376.841 135.158C348.145 106.462 301.463 106.462 272.767 135.158C244.071 163.854 244.071 210.536 272.767 239.232C287.111 253.584 305.96 260.752 324.8 260.752C343.649 260.752 362.489 253.576 376.841 239.232C405.537 210.536 405.537 163.853 376.841 135.158ZM364.776 227.166C342.736 249.206 306.873 249.206 284.833 227.166C262.793 205.126 262.793 169.263 284.833 147.223C295.849 136.207 310.329 130.695 324.801 130.695C339.273 130.695 353.753 136.207 364.777 147.223C386.816 169.263 386.816 205.126 364.776 227.166Z" fill="#65ADE8"/>
<path d="M341.763 204.162C332.411 213.531 317.189 213.522 307.828 204.162C298.476 194.802 298.476 179.588 307.828 170.227C317.18 160.875 332.402 160.867 341.763 170.227C345.091 173.563 350.501 173.563 353.828 170.227C357.164 166.891 357.164 161.498 353.828 158.162C337.829 142.155 311.77 142.155 295.763 158.162C279.755 174.169 279.755 200.22 295.763 216.227C303.767 224.231 314.288 228.233 324.8 228.233C335.321 228.233 345.833 224.231 353.828 216.227C357.164 212.891 357.164 207.498 353.828 204.162C350.5 200.826 345.091 200.826 341.763 204.162Z" fill="#65ADE8"/>
</g>
<defs>
<clipPath id="clip0">
<rect width="512.005" height="512.005" fill="white"/>
</clipPath>
</defs>
</svg>
