<svg width="330" height="330" viewBox="0 0 330 330" fill="none" xmlns="http://www.w3.org/2000/svg">
<path d="M180 170C226.869 170 265 131.869 265 85C265 38.131 226.869 0 180 0C179.817 0 179.635 0.003 179.454 0.01H110.02C110.013 0.01 110.007 0.009 110.001 0.009C101.717 0.009 95.001 6.725 95.001 15.009V15.01V155V200H80C71.716 200 65 206.716 65 215C65 223.284 71.716 230 80 230H95V315C95 323.284 101.716 330 110 330C118.284 330 125 323.284 125 315V230H180C188.284 230 195 223.284 195 215C195 206.716 188.284 200 180 200H125V170H180ZM180 30.01C180.162 30.01 180.324 30.007 180.484 30.002C210.59 30.262 235 54.834 235 85C235 115.327 210.327 140 180 140H125V30.01H180Z" fill="#65ADE8"/>
</svg>
