<svg width="549" height="314" viewBox="0 0 549 314" fill="none" xmlns="http://www.w3.org/2000/svg">
<path d="M545.451 283.298C544.787 281.867 544.168 280.68 543.593 279.729C534.079 262.594 515.898 241.562 489.061 216.627L488.494 216.056L488.21 215.776L487.923 215.489H487.635C475.455 203.878 467.742 196.071 464.512 192.074C458.602 184.46 457.278 176.753 460.508 168.944C462.79 163.044 471.362 150.584 486.204 131.547C494.011 121.458 500.194 113.372 504.76 107.28C537.691 63.5 551.968 35.524 547.588 23.341L545.887 20.494C544.744 18.78 541.794 17.212 537.041 15.782C532.277 14.355 526.188 14.119 518.763 15.07L436.539 15.638C435.207 15.166 433.305 15.21 430.827 15.782C428.352 16.354 427.114 16.641 427.114 16.641L425.683 17.356L424.547 18.215C423.595 18.783 422.548 19.782 421.405 21.21C420.268 22.633 419.317 24.303 418.557 26.206C409.605 49.237 399.427 70.65 388.004 90.444C380.961 102.247 374.493 112.476 368.586 121.137C362.687 129.795 357.738 136.174 353.744 140.263C349.744 144.356 346.134 147.635 342.892 150.112C339.655 152.59 337.184 153.637 335.473 153.254C333.758 152.871 332.143 152.491 330.614 152.111C327.951 150.397 325.809 148.066 324.194 145.116C322.572 142.166 321.48 138.453 320.909 133.98C320.341 129.504 320.005 125.654 319.909 122.417C319.82 119.184 319.861 114.611 320.054 108.711C320.252 102.808 320.341 98.814 320.341 96.72C320.341 89.486 320.482 81.635 320.765 73.165C321.053 64.695 321.286 57.984 321.481 53.04C321.675 48.091 321.765 42.855 321.765 37.335C321.765 31.815 321.429 27.486 320.765 24.344C320.109 21.206 319.102 18.16 317.775 15.207C316.44 12.257 314.486 9.97501 311.922 8.35501C309.353 6.73701 306.159 5.45301 302.358 4.49901C292.269 2.21601 279.422 0.981006 263.811 0.789006C228.41 0.409006 205.663 2.695 195.575 7.644C191.578 9.735 187.961 12.592 184.727 16.206C181.3 20.395 180.822 22.681 183.296 23.057C194.718 24.768 202.804 28.861 207.563 35.332L209.278 38.761C210.612 41.235 211.944 45.615 213.277 51.895C214.608 58.175 215.467 65.122 215.845 72.732C216.795 86.629 216.795 98.525 215.845 108.421C214.892 118.321 213.992 126.028 213.133 131.548C212.274 137.068 210.99 141.541 209.278 144.966C207.563 148.392 206.422 150.486 205.85 151.246C205.279 152.006 204.803 152.485 204.425 152.673C201.951 153.621 199.378 154.104 196.715 154.104C194.048 154.104 190.814 152.77 187.008 150.104C183.203 147.438 179.254 143.776 175.161 139.112C171.068 134.447 166.452 127.928 161.311 119.554C156.174 111.18 150.844 101.283 145.324 89.863L140.757 81.581C137.902 76.253 134.002 68.495 129.053 58.314C124.101 48.129 119.724 38.277 115.919 28.76C114.398 24.763 112.113 21.72 109.068 19.626L107.639 18.767C106.689 18.007 105.164 17.2 103.072 16.34C100.977 15.481 98.791 14.865 96.505 14.486L18.276 15.054C10.282 15.054 4.858 16.865 2.002 20.482L0.859 22.193C0.288 23.146 0 24.668 0 26.763C0 28.857 0.571 31.427 1.714 34.47C13.134 61.31 25.553 87.195 38.971 112.129C52.389 137.063 64.049 157.148 73.944 172.366C83.841 187.595 93.929 201.968 104.208 215.478C114.487 228.993 121.291 237.654 124.62 241.459C127.953 245.271 130.571 248.121 132.474 250.024L139.613 256.875C144.181 261.444 150.889 266.916 159.74 273.291C168.593 279.67 178.394 285.95 189.148 292.141C199.904 298.322 212.417 303.366 226.694 307.267C240.969 311.172 254.863 312.739 268.378 311.983H301.212C307.871 311.408 312.916 309.314 316.345 305.7L317.481 304.269C318.245 303.133 318.96 301.368 319.62 298.993C320.288 296.614 320.62 293.993 320.62 291.142C320.425 282.959 321.048 275.584 322.472 269.018C323.895 262.454 325.517 257.505 327.331 254.172C329.144 250.842 331.19 248.032 333.467 245.754C335.749 243.471 337.375 242.088 338.329 241.612C339.277 241.133 340.034 240.808 340.605 240.613C345.173 239.091 350.549 240.565 356.741 245.042C362.928 249.515 368.731 255.038 374.159 261.602C379.584 268.172 386.102 275.543 393.714 283.726C401.331 291.912 407.991 297.997 413.699 302L419.407 305.426C423.219 307.712 428.168 309.806 434.26 311.709C440.341 313.611 445.669 314.087 450.244 313.136L523.331 311.996C530.56 311.996 536.185 310.799 540.175 308.424C544.173 306.045 546.548 303.424 547.314 300.573C548.078 297.719 548.119 294.481 547.459 290.861C546.782 287.25 546.115 284.725 545.451 283.298Z" fill="#597DA3"/>
</svg>
