<svg width="24" height="24" viewBox="0 0 24 24" fill="none" xmlns="http://www.w3.org/2000/svg">
<path d="M22.352 5.75201C21.0187 5.20725 19.6842 5 18.3505 5C14.1166 4.99967 9.88305 7.08728 5.64915 7.08728C4.58732 7.08728 3.52618 6.95603 2.46435 6.6279C2.34507 6.59107 2.22545 6.57366 2.10858 6.57366C1.51699 6.57366 1 7.01964 1 7.63873V18.2613C1 18.6842 1.24853 19.0849 1.64761 19.2477C2.981 19.7927 4.31542 20 5.64915 20C9.88305 20 14.117 17.9124 18.3509 17.9124C19.4127 17.9124 20.4738 18.0436 21.5356 18.3718C21.6549 18.4086 21.7745 18.426 21.8914 18.426C22.483 18.426 23 17.98 23 17.3609V6.73873C22.9997 6.31551 22.7511 5.91507 22.352 5.75201ZM11.9998 15.7143C10.4808 15.7143 9.24987 14.2749 9.24987 12.5C9.24987 10.7248 10.4812 9.28571 11.9998 9.28571C13.5185 9.28571 14.7498 10.7248 14.7498 12.5C14.7498 14.2756 13.5181 15.7143 11.9998 15.7143Z" fill="#FFF8EC"/>
</svg>
