<svg width="24" height="24" viewBox="0 0 24 24" fill="none" xmlns="http://www.w3.org/2000/svg">
<path d="M11.3759 17.6932C11.4303 17.7397 11.4893 17.7862 11.5471 17.8316C10.3978 18.5945 9.04871 19.0008 7.66923 18.9995C6.74973 19.0002 5.8391 18.8197 4.98942 18.4682C4.13974 18.1167 3.36768 17.6012 2.71739 16.9512C2.06709 16.3011 1.55133 15.5292 1.19959 14.6796C0.847851 13.83 0.667034 12.9195 0.667481 12C0.667362 10.7336 1.01072 9.49082 1.66099 8.4041C2.31126 7.31739 3.24409 6.42738 4.36014 5.82886C5.4762 5.23034 6.73369 4.94572 7.9987 5.00532C9.26371 5.06491 10.4889 5.46648 11.5437 6.16726C11.487 6.21602 11.4303 6.26024 11.3872 6.31013C10.5699 7.01588 9.91414 7.88935 9.46451 8.87117C9.01489 9.85298 8.78197 10.9201 8.78158 12C8.78158 14.1827 9.7261 16.2577 11.3759 17.6932ZM16.3208 4.99936C14.9425 4.99667 13.5945 5.40314 12.4474 6.16726C12.503 6.21602 12.5597 6.26024 12.6028 6.31013C14.2605 7.74223 15.2096 9.81837 15.2096 12C15.2096 14.1816 14.2628 16.2554 12.6152 17.6932C12.5597 17.7397 12.5007 17.7862 12.444 17.8316C13.5924 18.5947 14.9408 19.0011 16.3197 18.9995C17.2464 19.0113 18.1663 18.8391 19.026 18.4926C19.8856 18.1462 20.6679 17.6325 21.3275 16.9814C21.9871 16.3303 22.5108 15.5546 22.8683 14.6995C23.2257 13.8444 23.4099 12.9268 23.4099 12C23.41 11.0731 23.226 10.1555 22.8687 9.30035C22.5114 8.44517 21.9878 7.66947 21.3283 7.01823C20.6688 6.36699 19.8866 5.85319 19.027 5.50662C18.1674 5.16006 17.2475 4.98764 16.3208 4.99936ZM11.995 6.50062C11.1614 7.15426 10.4876 7.98918 10.0247 8.94203C9.56184 9.89489 9.32206 10.9406 9.32357 12C9.32138 13.0599 9.56083 14.1064 10.0237 15.0599C10.4866 16.0134 11.1608 16.8488 11.995 17.5027C12.829 16.8486 13.503 16.0131 13.9661 15.0597C14.4292 14.1062 14.6691 13.0599 14.6676 12C14.6691 10.9405 14.4292 9.89465 13.9662 8.94176C13.5031 7.98888 12.829 7.15403 11.995 6.50062Z" fill="#FFF8EC"/>
</svg>
