<svg width="44" height="43" viewBox="0 0 44 43" fill="none" xmlns="http://www.w3.org/2000/svg">
<path fill-rule="evenodd" clip-rule="evenodd" d="M2.51743 28.8367C1.50424 26.7634 0.823472 24.5515 0.498706 22.2777C0.138585 19.7247 0.37312 19.4926 0.304012 17.4177C0.303483 17.8401 0.0158086 18.5132 0.0286498 19.7108C0.010928 22.0443 0.262975 24.3721 0.780058 26.6504C3.15832 36.2265 13.6243 42.7251 23.2626 42.0799C26.3596 41.8758 29.3756 41.0256 32.1049 39.5872C33.3179 38.9593 34.4597 38.2094 35.5115 37.3499C38.2638 34.509 39.6376 33.084 40.6798 29.2359C41.3198 26.7827 41.3504 24.2176 40.7689 21.7521C40.1875 19.2866 39.0107 16.9913 37.3355 15.0555C35.6604 13.1196 33.5349 11.5987 31.1343 10.618C28.7336 9.63734 26.1267 9.22504 23.5282 9.4151C22.0079 9.51722 19.1245 10.1207 18.0911 10.7752C19.7024 10.5106 20.095 10.0789 22.4659 10.2228C24.4645 10.3531 26.3878 11.0112 28.0281 12.1259C29.0454 12.7682 29.9444 13.5715 30.6879 14.5026C31.7912 15.8927 32.5675 17.5008 32.9623 19.2141C33.2567 20.562 33.3786 21.9402 33.3252 23.3175C33.234 25.2732 32.7983 27.1996 32.0369 29.0131C31.0645 31.4085 29.5083 33.5397 27.502 35.2239C25.2387 37.094 22.4084 38.1944 19.4429 38.3571C11.9512 38.8585 5.68836 35.3121 2.54133 28.8367H2.51743ZM16.9831 6.0451C11.3949 9.67504 8.99811 14.9343 10.4896 22.598C11.7253 28.3261 16.7975 32.1045 22.5154 31.7843C23.4232 31.6829 24.3238 31.5279 25.2122 31.3201L24.906 31.5104C23.3084 32.2392 20.4396 32.6755 18.7281 32.6755C12.4609 32.6755 7.12539 29.2034 4.15838 24.037C3.07577 21.9788 2.45152 19.7219 2.32618 17.413C2.1286 13.5443 3.416 9.74018 5.93928 6.73674C7.40004 5.01091 9.20527 3.58979 11.2461 2.55906C20.8131 -2.23135 32.1883 -0.226067 38.8755 7.9854C41.3332 10.9202 42.8776 14.4756 43.3276 18.2346C43.5437 19.8899 43.5689 21.5636 43.4027 23.2247C43.3639 23.596 43.1764 24.4965 43.1905 24.7008C43.0692 22.2545 43.4285 21.716 42.8203 18.7267C42.6511 17.8597 42.432 17.0027 42.1638 16.1597C39.8627 9.87464 35.3128 5.10744 28.6025 3.88663C24.5112 3.21356 20.1266 3.88663 16.9831 6.09616L16.9831 6.0451Z" fill="#FFF8EC"/>
</svg>
