<svg width="24" height="24" viewBox="0 0 24 24" fill="none" xmlns="http://www.w3.org/2000/svg">
<path d="M18.9556 11.118C18.9556 11.118 19.2457 12.4468 19.311 12.7251H18.0357L18.6469 11.1714C18.6393 11.1823 18.7727 10.8461 18.849 10.6391L18.9556 11.118ZM23 5.71442V18.2856C22.9998 18.7402 22.8066 19.1762 22.4628 19.4977C22.119 19.8191 21.6527 19.9998 21.1665 20H2.83351C2.34729 19.9998 1.88103 19.8191 1.53722 19.4977C1.19341 19.1762 1.00018 18.7402 1 18.2856V5.71442C1.00018 5.25978 1.19341 4.82381 1.53722 4.50233C1.88103 4.18085 2.34729 4.00017 2.83351 4H21.1665C21.6527 4.00017 22.119 4.18085 22.4628 4.50233C22.8066 4.82381 22.9998 5.25978 23 5.71442ZM6.82501 14.6857L9.23874 9.14327H7.61561L6.11484 12.9289L5.95053 12.1613L5.41567 9.61125C5.32768 9.25769 5.05681 9.15741 4.72063 9.14327H2.24984L2.22302 9.25384C2.78887 9.38364 3.33165 9.58933 3.83447 9.86452L5.20187 14.6857H6.82501ZM10.4308 14.6928L11.3933 9.14327H9.85816L8.89982 14.6928H10.4308ZM15.7739 12.8787C15.7815 12.2468 15.369 11.7647 14.487 11.3681C13.9487 11.1142 13.62 10.9432 13.62 10.6822C13.6276 10.4463 13.8992 10.2033 14.5021 10.2033C14.8948 10.1929 15.285 10.265 15.644 10.4141L15.7815 10.4746L15.9918 9.27441C15.553 9.11731 15.0868 9.03733 14.6169 9.03849C13.1003 9.03849 12.0347 9.79574 12.0272 10.8738C12.0155 11.6702 12.7909 12.1131 13.3719 12.3806C13.9638 12.6518 14.1666 12.8305 14.1666 13.0697C14.159 13.4412 13.6854 13.6122 13.2461 13.6122C12.6349 13.6122 12.3063 13.5229 11.8058 13.3159L11.6037 13.2265L11.3899 14.473C11.7487 14.6266 12.4135 14.7622 13.101 14.7693C14.7124 14.7725 15.7629 14.0262 15.7746 12.8768L15.7739 12.8787ZM21.1665 14.6928L19.929 9.14327H18.7411C18.3746 9.14327 18.0955 9.24355 17.9388 9.60418L15.6584 14.6935H17.2699C17.2699 14.6935 17.5332 14.0076 17.5909 13.8616H19.5619C19.608 14.0583 19.7455 14.6935 19.7455 14.6935L21.1665 14.6928Z" fill="#FFF8EC"/>
</svg>
