<svg width="373" height="373" viewBox="0 0 373 373" fill="none" xmlns="http://www.w3.org/2000/svg">
<g clip-path="url(#clip0)">
<path d="M186.48 0C83.49 0 0 83.49 0 186.48C0 289.47 83.49 372.96 186.48 372.96C289.47 372.96 372.96 289.47 372.96 186.48C372.828 83.545 289.415 0.132 186.48 0ZM194.48 356.56V323.76C194.48 319.342 190.898 315.76 186.48 315.76C182.062 315.76 178.48 319.342 178.48 323.76V356.56C90.759 352.372 20.588 282.201 16.4 194.48H49.2C53.618 194.48 57.2 190.898 57.2 186.48C57.2 182.062 53.618 178.48 49.2 178.48H16.4C20.588 90.759 90.759 20.588 178.48 16.4V49.2C178.48 53.618 182.062 57.2 186.48 57.2C190.898 57.2 194.48 53.618 194.48 49.2V16.4C282.201 20.588 352.372 90.759 356.56 178.48H323.76C319.342 178.48 315.76 182.062 315.76 186.48C315.76 190.898 319.342 194.48 323.76 194.48H323.84H356.64C352.449 282.23 282.232 352.412 194.48 356.56Z" fill="#EE3342"/>
<path d="M270.88 260.88L194.48 183.2V102.48C194.48 98.062 190.898 94.48 186.48 94.48C182.062 94.48 178.48 98.062 178.48 102.48V186.48C178.489 188.579 179.322 190.59 180.8 192.08L259.44 272.08C262.533 275.239 267.601 275.293 270.76 272.2C273.919 269.107 273.973 264.039 270.88 260.88Z" fill="#EE3342"/>
</g>
<defs>
<clipPath id="clip0">
<rect width="372.96" height="372.96" fill="white"/>
</clipPath>
</defs>
</svg>
